<?xml version="1.0" encoding="UTF-8"?>
<svg version="1.1" xmlns="http://www.w3.org/2000/svg" width="2963" height="605">
<path d="M0 0 C977.79 0 1955.58 0 2963 0 C2963 199.65 2963 399.3 2963 605 C1985.21 605 1007.42 605 0 605 C0 405.35 0 205.7 0 0 Z " fill="#FEFEFE" transform="translate(0,0)"/>
<path d="M0 0 C203.66479239 0 203.66479239 0 257.7578125 49.9453125 C259.69106313 51.71689757 261.66289334 53.39782341 263.6875 55.0625 C266.87358841 57.77104823 269.57007286 60.77674168 272.26953125 63.96484375 C273.34500867 65.22968289 274.44309289 66.47607748 275.57421875 67.69140625 C289.2979629 82.54495016 299.55889073 100.51404222 307.22265625 119.11425781 C307.938007 120.84961246 308.67129538 122.57754415 309.40625 124.3046875 C312.96270631 133.00065688 315.02051822 141.84834935 317 151 C317.37448394 152.625119 317.74936202 154.25014736 318.125 155.875 C318.25841797 156.50825195 318.39183594 157.14150391 318.52929688 157.79394531 C318.83572608 159.23009381 319.16232134 160.66213483 319.51196289 162.08837891 C321.44454494 170.90989901 321.33711876 179.74583589 321.31567383 188.73046875 C321.31253832 191.466561 321.33594956 194.20154261 321.36132812 196.9375 C321.49420128 233.72284242 309.27017837 271.91283393 288 302 C287.54560547 302.64904297 287.09121094 303.29808594 286.62304688 303.96679688 C272.09482512 324.47837779 253.88253407 341.15262569 233 355 C232.00613281 355.66902344 231.01226563 356.33804687 229.98828125 357.02734375 C214.64399249 366.94906696 197.36605519 373.53923318 180 379 C179.00468262 379.31493408 179.00468262 379.31493408 177.98925781 379.63623047 C125.43899159 395.74385216 39.11437962 386 0 386 C0 258.62 0 131.24 0 0 Z " fill="#AFAFAF" transform="translate(2582,117)"/>
<path d="M0 0 C27.06 0 54.12 0 82 0 C91.18149495 27.54448484 91.18149495 27.54448484 94.26171875 37.7734375 C94.61497223 38.93606613 94.96822571 40.09869476 95.33218384 41.29655457 C96.45347375 44.9885118 97.57051408 48.68173864 98.6875 52.375 C100.06843341 56.92903439 101.45229804 61.4821792 102.83617973 66.03531837 C103.2311892 67.33511403 103.6260731 68.63494784 104.02083015 69.93482018 C106.61570918 78.47896117 109.23217985 87.01595884 111.8828125 95.54296875 C112.17934219 96.49717712 112.47587189 97.4513855 112.78138733 98.43450928 C114.13425113 102.78429339 115.49099038 107.13283115 116.85229492 111.47998047 C119.47316873 119.87779289 121.94156535 128.29876895 124.26264954 136.78443909 C125.81557861 142.42814048 127.57101727 147.97298565 129.5 153.5 C131.95026768 160.67616193 134.12763386 167.86735062 136.0859375 175.19140625 C137.92076191 181.94689613 140.15309751 188.54604952 142.40966797 195.17041016 C144.57609735 201.58460124 146.45975298 208.03675499 148.21557617 214.57373047 C150.17833087 221.82044683 152.54155763 228.90713222 155 236 C158.76742167 225.67581561 161.61096683 215.15009344 164.39178467 204.52554321 C166.63121354 195.98155807 168.99361721 187.4958541 171.625 179.0625 C174.25078238 170.64468056 176.55656985 162.18447626 178.7265625 153.63867188 C180.75761364 145.72513487 183.11167444 137.93371962 185.53515625 130.1328125 C187.57145855 123.53519306 189.2968828 116.93369589 190.90625 110.21875 C192.23131251 104.91849994 193.8828655 99.71687674 195.5 94.5 C197.9171906 86.70099631 200.07268554 78.92274648 201.984375 70.984375 C203.10448311 66.4631289 204.45426921 62.01698825 205.8125 57.5625 C208.13512663 49.94158961 210.3563607 42.2982611 212.5 34.625 C212.76014893 33.69502197 213.02029785 32.76504395 213.28833008 31.80688477 C216.23684834 21.21670808 219.10750947 10.60579861 222 0 C246.42 0 270.84 0 296 0 C298.31 8.58 300.62 17.16 303 26 C304.44637292 31.11047625 304.44637292 31.11047625 305.9140625 36.21484375 C306.81926602 39.37003156 307.70696732 42.5288572 308.5859375 45.69140625 C311.32157727 55.53165673 314.07558161 65.35771756 317.0625 75.125 C319.52030237 83.1750754 321.66474956 91.28550478 323.75244141 99.43847656 C325.34911949 105.62806817 327.07140777 111.76144982 328.9375 117.875 C333.68035602 133.4187745 338.01696059 149.0733429 342.0625 164.8125 C344.09073 172.69738623 346.29513053 180.50347934 348.67553711 188.28881836 C351.70015389 198.21109682 354.44234082 208.21205475 357.22021484 218.20556641 C358.78466903 223.81193541 360.38908566 229.40682535 362 235 C364.11047687 231.83428469 364.8310821 229.40839183 365.8125 225.75 C367.19619384 220.75134218 368.69189777 215.84609717 370.375 210.9375 C372.40166306 204.96255128 374.17848815 198.95128222 375.875 192.875 C378.10317906 184.90886276 380.55720716 177.05410189 383.28857422 169.24560547 C385.28288564 163.45133862 386.98224731 157.59593959 388.640625 151.69921875 C392.36403198 138.50251874 396.4935093 125.43407572 400.60774994 112.35532379 C402.3782196 106.72393851 404.14229429 101.09054302 405.90754318 95.45751953 C406.36032024 94.01284508 406.81320389 92.56820404 407.26619339 91.12359619 C410.5643981 80.60540587 413.84229689 70.08110078 417.1015625 59.55078125 C417.51127027 58.22754387 417.92097892 56.90430677 418.33068848 55.58106995 C419.88752756 50.55192508 421.44367121 45.52256869 422.99621582 40.49209595 C424.05571966 37.0593213 425.11755662 33.62727507 426.1796875 30.1953125 C426.47896149 29.22269974 426.77823547 28.25008698 427.08657837 27.2480011 C429.91727857 18.11227072 432.97286127 9.0814162 436 0 C463.06 0 490.12 0 518 0 C516.68 4.29 515.36 8.58 514 13 C512.8821108 16.7706502 512.8821108 16.7706502 511.76904297 20.54272461 C509.45145984 28.39800205 506.95404952 36.12009877 504.140625 43.8125 C502.23127572 49.14821579 500.62352892 54.57208241 499 60 C492.14194303 82.91499665 492.14194303 82.91499665 488.10546875 93.9140625 C486.65282918 97.96913409 485.40505224 102.07253953 484.16015625 106.1953125 C480.37847607 118.59718621 476.41112175 130.94691819 472.23828125 143.22265625 C471.17570937 146.46400329 470.16350441 149.71324674 469.16723633 152.9753418 C467.19602104 159.39282725 465.15539738 165.78550218 463.0859375 172.171875 C462.32705625 174.52039664 461.56827149 176.86894947 460.80957031 179.2175293 C460.41370728 180.44208832 460.01784424 181.66664734 459.60998535 182.92831421 C452.7482924 204.15790932 445.9497049 225.4061291 439.25 246.6875 C434.24471411 262.58647768 429.21827898 278.47821714 424.14453125 294.35546875 C423.89274738 295.1433824 423.64096352 295.93129604 423.38154984 296.74308586 C420.89884466 304.51114872 418.41391742 312.27849869 415.92646599 320.04504299 C414.77462301 323.6418245 413.62355651 327.23885425 412.47265625 330.8359375 C412.2494508 331.53327562 412.02624535 332.23061375 411.79627609 332.94908333 C409.14003848 341.25074466 406.50485889 349.5586844 403.89794922 357.87597656 C403.64311358 358.68877642 403.38827795 359.50157627 403.12572002 360.33900642 C401.89304425 364.27237137 400.66280875 368.20647863 399.43605042 372.14169312 C398.99572682 373.54971228 398.55537498 374.95772261 398.11499023 376.36572266 C397.72979721 377.60117828 397.34460419 378.83663391 396.94773865 380.10952759 C396 383 396 383 395 385 C372.56 385 350.12 385 327 385 C322.96219498 371.15609709 319.04379006 357.4467002 315.4609375 343.50390625 C313.90377093 337.54239069 312.12766283 331.65794831 310.32006836 325.76855469 C308.22464 318.88561218 306.34631632 311.95348178 304.5 305 C302.47493028 297.37565664 300.38253483 289.78991624 298.0625 282.25 C295.31385479 273.30787668 292.92497802 264.27966485 290.54916382 255.23275757 C288.07995272 245.84816984 285.39863631 236.55414236 282.51074219 227.29003906 C279.83753874 218.64432826 277.57299887 209.90940443 275.328125 201.14453125 C274.02114631 196.04639396 272.60478297 190.98653441 271.1328125 185.93359375 C270.16456841 182.59944249 269.23326223 179.25556238 268.3046875 175.91015625 C267.84437134 174.2537915 267.84437134 174.2537915 267.37475586 172.56396484 C266.76450609 170.36553964 266.1558618 168.16666794 265.54907227 165.96728516 C264.03663475 160.52933632 262.44484473 155.1586352 260.55371094 149.83935547 C259.85356357 147.51355728 259.76669386 145.41083008 260 143 C259.34 143 258.68 143 258 143 C257.91086838 143.52573608 257.82173676 144.05147217 257.72990417 144.59313965 C256.14865708 153.18973004 253.66533424 161.52100063 251.23828125 169.90625 C250.76425187 171.55591199 250.29064297 173.20569486 249.81742859 174.85559082 C248.57244209 179.19317779 247.32305927 183.52948433 246.07232666 187.86541748 C243.85171099 195.56506205 241.6372845 203.26648376 239.42578125 210.96875 C239.18784473 211.79675613 238.94990822 212.62476227 238.70476151 213.4778595 C235.43192622 224.87510352 232.23913349 236.2879633 229.22053528 247.7557373 C227.46934038 254.38831133 225.53572297 260.94939 223.5 267.5 C220.65593726 276.68917821 218.09380645 285.93007568 215.62719727 295.22729492 C213.127189 304.61857563 210.43090039 313.94418604 207.68359375 323.265625 C206.08559314 328.6877058 204.53918659 334.12349308 203 339.5625 C200.07371111 349.87258728 196.95320651 360.1211277 193.80322266 370.36474609 C192.72502039 373.90216715 191.67885299 377.44889976 190.63745117 380.99731445 C190 383 190 383 189 385 C166.89 385 144.78 385 122 385 C118.7 374.77 115.4 364.54 112 354 C110.28307372 348.69991051 108.56519357 343.40017917 106.84375 338.1015625 C97.99134151 310.82566803 89.17625274 283.53989724 80.5625 256.1875 C80.19722198 255.02758545 79.83194397 253.8676709 79.45559692 252.67260742 C78.01484558 248.09673919 76.57434871 243.52079093 75.13420105 238.94473267 C71.42514336 227.16410946 67.68928026 215.39208279 63.9375 203.625 C63.62646332 202.64918976 63.31542664 201.67337952 62.9949646 200.66799927 C59.02393052 188.21974197 54.96949127 175.8048808 50.7956543 163.4230957 C48.18345376 155.64478233 45.82176428 147.8157838 43.56054688 139.9296875 C41.10900548 131.49023488 38.44762183 123.13212317 35.4375 114.875 C33.37193436 109.186651 31.6505977 103.46088089 30.02734375 97.6328125 C27.49359597 88.67317207 24.69583191 79.80846005 21.5 71.0625 C19.73053329 66.19100523 18.16968662 61.29519234 16.75 56.3125 C14.55897656 48.63040426 12.05195397 41.06910698 9.5 33.5 C6.87472413 25.69681063 4.27326819 17.89545595 1.9375 10 C1.73382813 9.31873047 1.53015625 8.63746094 1.3203125 7.93554688 C0.51981809 5.17412912 0 2.89418394 0 0 Z " fill="#AFAFAF" transform="translate(81,117)"/>
<path d="M0 0 C23.43 0 46.86 0 71 0 C75.95 8.91 80.9 17.82 86 27 C89.44644252 33.05848317 92.89578818 39.11397603 96.36767578 45.15771484 C99.54220846 50.68537106 102.70968568 56.21706174 105.875 61.75 C106.21455719 62.34332123 106.55411438 62.93664246 106.90396118 63.54794312 C111.69420874 71.92117935 116.42927739 80.323275 121.125 88.75 C125.63770352 96.84723974 130.24138757 104.88279297 134.9375 112.875 C140.57961427 122.47718607 146.01402469 132.18220327 151.39428711 141.93310547 C156.04051584 150.3310632 160.83905785 158.62834312 165.70629883 166.8996582 C172.17539134 177.93192715 178.34275263 189.12878802 184.50463867 200.3347168 C186.95225668 205.44114447 186.95225668 205.44114447 191 209 C191.20238281 208.23042969 191.40476562 207.46085938 191.61328125 206.66796875 C193.55807966 201.52383999 196.36718586 197.02119839 199.1875 192.3125 C204.43173619 183.44854153 209.53082338 174.52097679 214.5 165.5 C219.77574419 155.93664959 225.19240028 146.47206001 230.73046875 137.05859375 C235.10262928 129.60135815 239.3239439 122.06856352 243.5 114.5 C248.77648595 104.93704918 254.19238882 95.4720795 259.73046875 86.05859375 C264.10263001 78.60135691 268.32390077 71.0685407 272.5 63.5 C277.79269478 53.90882584 283.21809438 44.41043466 288.7722168 34.96850586 C293.85833768 26.30114088 298.77274533 17.54320235 303.64672852 8.75537109 C304.20287842 7.7545752 304.75902832 6.7537793 305.33203125 5.72265625 C305.82421143 4.83328369 306.3163916 3.94391113 306.82348633 3.02758789 C308 1 308 1 309 0 C332.1 0 355.2 0 379 0 C379 127.05 379 254.1 379 385 C353.59 385 328.18 385 302 385 C301.505 276.1 301.505 276.1 301 165 C297.37 171.6 293.74 178.2 290 185 C284.83009067 193.84326596 284.83009067 193.84326596 282.78125 197.28515625 C279.38771646 203.01548696 276.0722101 208.79063072 272.75 214.5625 C264.97651704 228.05912289 257.12994366 241.51229289 249.27050781 254.95898438 C247.53393165 257.93065503 245.79801976 260.90271227 244.0625 263.875 C243.49184814 264.85202881 242.92119629 265.82905762 242.33325195 266.83569336 C239.22806646 272.15855789 236.1383392 277.48989988 233.06640625 282.83203125 C232.40825928 283.97623535 231.7501123 285.12043945 231.07202148 286.29931641 C229.82100277 288.47632427 228.57167253 290.65430377 227.32446289 292.83349609 C226.15723297 294.86514221 224.96409757 296.88212772 223.74536133 298.88330078 C221.89785356 302.00280807 221.89785356 302.00280807 220.63549805 305.59716797 C218.96229304 309.43478449 217.49923926 312.62344058 214 315 C207.22223819 317.19626871 200.0033783 316.9520555 192.95581055 316.8046875 C189.56726236 316.75007675 186.20516011 316.84472373 182.81835938 316.953125 C167.79347294 317.08898359 167.79347294 317.08898359 163.17553711 313.63565063 C160.13737355 310.18036631 158.41844818 306.2313849 156.79037476 301.96697998 C155.61723737 299.04743108 154.00186458 296.44389497 152.3671875 293.76171875 C151.20180932 291.73773614 150.03777509 289.71297919 148.875 287.6875 C147.5716295 285.4231685 146.26824364 283.15884583 144.96484375 280.89453125 C144.3085498 279.75322754 143.65225586 278.61192383 142.97607422 277.43603516 C139.80012226 271.91362993 136.61966752 266.39382559 133.4375 260.875 C132.81665527 259.79822998 132.19581055 258.72145996 131.55615234 257.61206055 C126.82024016 249.40541011 122.0501416 241.21910249 117.26928711 233.03857422 C112.3575967 224.62819269 107.4906832 216.19241316 102.62963867 207.75268555 C97.63860189 199.09290078 92.61141906 190.45461102 87.56640625 181.82617188 C87.025 180.89998047 86.48359375 179.97378906 85.92578125 179.01953125 C85.45567627 178.21620361 84.98557129 177.41287598 84.5012207 176.58520508 C82.65128398 173.39948708 80.82772259 170.19851453 79 167 C78.67 238.94 78.34 310.88 78 385 C52.26 385 26.52 385 0 385 C0 257.95 0 130.9 0 0 Z " fill="#AFAFAF" transform="translate(1645,117)"/>
<path d="M0 0 C23.1 0 46.2 0 70 0 C74.29 6.27 78.58 12.54 83 19 C87.83045622 25.70968303 87.83045622 25.70968303 92.68359375 32.40234375 C96.78474 38.06258332 100.7717979 43.80146176 104.76708984 49.53662109 C108.64175303 55.08797626 112.57952277 60.58846259 116.5625 66.0625 C121.02588538 72.19948557 125.3632132 78.40892978 129.625 84.6875 C133.9332679 91.0337224 138.34336798 97.27931769 142.90893555 103.44262695 C148.40374203 110.86882063 153.69147749 118.44015641 159 126 C165.0735802 134.64209887 171.17344155 143.26162548 177.375 151.8125 C182.58623224 158.99854787 187.69275051 166.25276942 192.7668457 173.53613281 C196.6414697 179.08773664 200.57941671 184.58831682 204.5625 190.0625 C209.59307541 196.97935035 214.44563124 204.0028443 219.24829102 211.0793457 C223.54784159 217.39281702 228.00813825 223.57170666 232.5625 229.703125 C235.07961506 233.10768447 237.53902805 236.55463928 240 240 C240.33 160.8 240.66 81.6 241 0 C266.74 0 292.48 0 319 0 C319 127.05 319 254.1 319 385 C295.57 385 272.14 385 248 385 C236 368 236 368 230.0625 359.5625 C225.95972812 353.73917246 221.8071879 347.95401244 217.625 342.1875 C212.41376776 335.00145213 207.30724949 327.74723058 202.2331543 320.46386719 C198.35853197 314.91226577 194.42068958 309.41160412 190.4375 303.9375 C185.98968443 297.82419689 181.67654457 291.63471267 177.4375 285.375 C172.92771166 278.71882011 168.24402438 272.24086245 163.37646484 265.84277344 C159.48978229 260.71260859 155.82525013 255.45704252 152.20996094 250.13330078 C148.77166394 245.08368499 145.22168238 240.12530001 141.625 235.1875 C137.11364411 228.99124436 132.73396731 222.72199554 128.4375 216.375 C123.92784772 209.71873159 119.24401918 203.24085561 114.37646484 196.84277344 C110.49457106 191.71892945 106.83442939 186.46994599 103.22314453 181.15307617 C99.15245851 175.17567205 94.93377441 169.31201171 90.67797852 163.46533203 C86.71719425 158.01948954 82.8638138 152.519734 79 147 C78.67 225.54 78.34 304.08 78 385 C52.26 385 26.52 385 0 385 C0 257.95 0 130.9 0 0 Z " fill="#AFAFAF" transform="translate(2211,117)"/>
<path d="M0 0 C164.96713615 0 164.96713615 0 186 5 C187.216875 5.26425781 188.43375 5.52851562 189.6875 5.80078125 C199.61332659 8.14782566 208.10772284 12.09578938 217 17 C218.42505859 17.77730469 218.42505859 17.77730469 219.87890625 18.5703125 C226.07996026 22.12208991 231.52575985 26.42576205 237 31 C237.61617187 31.48082031 238.23234375 31.96164063 238.8671875 32.45703125 C258.61473582 48.24596965 268.61880315 73.88458698 273 98 C273.17732666 98.88534424 273.35465332 99.77068848 273.53735352 100.68286133 C275.06916475 108.83275153 275.34680291 116.78218686 275.3125 125.0625 C275.31134186 125.73987213 275.31018372 126.41724426 275.30899048 127.11514282 C275.27124667 138.31417613 274.37264279 149.04170099 272 160 C271.69255859 161.62615234 271.69255859 161.62615234 271.37890625 163.28515625 C269.57788197 171.77569929 265.9125414 179.32278648 262 187 C261.42507813 188.16789063 260.85015625 189.33578125 260.2578125 190.5390625 C247.72006869 214.37691876 224.76250573 230.66716167 200 240 C203.10514338 245.67256681 206.63596214 250.91545662 210.375 256.1875 C211.63289365 257.97259907 212.89070382 259.75775697 214.1484375 261.54296875 C214.7887793 262.44966309 215.42912109 263.35635742 216.08886719 264.29052734 C219.07119346 268.51866441 222.0350975 272.75963633 225 277 C226.16397511 278.66282159 227.3280379 280.32558182 228.4921875 281.98828125 C230.85248124 285.36003531 233.2117491 288.7325041 235.5703125 292.10546875 C241.51542691 300.60593935 247.47319464 309.0969828 253.46142578 317.56713867 C257.92426103 323.8834604 262.3572322 330.22049583 266.7890625 336.55859375 C270.51284364 341.8817963 274.25004912 347.19520675 278 352.5 C279.46483732 354.57448203 280.92931197 356.64921934 282.39355469 358.72412109 C283.54473432 360.35501723 284.69649397 361.98550401 285.84863281 363.61572266 C287.77687728 366.34602754 289.70128254 369.07900415 291.625 371.8125 C292.22957031 372.66714844 292.83414062 373.52179688 293.45703125 374.40234375 C294.02035156 375.20414062 294.58367187 376.0059375 295.1640625 376.83203125 C295.66373535 377.54077393 296.1634082 378.2495166 296.67822266 378.97973633 C297.95555818 380.93207313 298.97535951 382.90720904 300 385 C287.88268305 385.27838729 275.76612981 385.49142895 263.64626312 385.62174606 C258.01790714 385.68430347 252.39174283 385.76909943 246.76464844 385.90527344 C241.33092341 386.03594071 235.89930169 386.10746421 230.46412659 386.13852692 C228.39383319 386.16065255 226.32365152 386.20386502 224.2542572 386.26876068 C208.02671894 386.75727885 208.02671894 386.75727885 203.0189209 382.41523743 C200.95525047 379.34798337 199.46664585 376.38480339 198 373 C196.94441037 371.39481792 195.85707183 369.80933058 194.71875 368.26171875 C194.19555176 367.51688232 193.67235352 366.7720459 193.13330078 366.00463867 C192.59431152 365.23998291 192.05532227 364.47532715 191.5 363.6875 C190.27833619 361.94813411 189.0569949 360.20854165 187.8359375 358.46875 C186.89379395 357.12683594 186.89379395 357.12683594 185.93261719 355.7578125 C182.6516334 351.07590334 179.388199 346.38181465 176.125 341.6875 C175.46153564 340.73311035 174.79807129 339.7787207 174.11450195 338.79541016 C172.76101947 336.84834082 171.40758549 334.90123777 170.05419922 332.95410156 C167.97626573 329.96586823 165.89659484 326.97885136 163.81640625 323.9921875 C157.54537334 314.98698424 151.28430227 305.97595086 145.08081055 296.92407227 C140.83615081 290.74058195 136.52789002 284.6020613 132.21948242 278.46289062 C127.86776259 272.25630975 123.55896633 266.02158105 119.28710938 259.75976562 C117.31800079 256.74048249 117.31800079 256.74048249 115 254 C114.90505267 251.62699131 114.87440681 249.28321297 114.88647461 246.90991211 C114.88632858 246.16849472 114.88618256 245.42707733 114.8860321 244.66319275 C114.88673135 242.20121379 114.89452426 239.73930957 114.90234375 237.27734375 C114.90420789 235.57483461 114.90563181 233.87232493 114.90663147 232.16981506 C114.91045698 227.68006927 114.92028753 223.19035562 114.93133545 218.70062256 C114.94154887 214.12268509 114.94612894 209.54474244 114.95117188 204.96679688 C114.96190978 195.97785043 114.97898659 186.98892788 115 178 C115.82972824 177.97527115 116.65945648 177.9505423 117.514328 177.92506409 C120.6358523 177.83017075 123.75724245 177.7317754 126.87858582 177.63111877 C128.87661664 177.56771841 130.8747708 177.50824395 132.8729248 177.44885254 C151.29866164 176.84791863 169.72070951 174.19388538 183.46484375 160.69140625 C183.97144531 160.13324219 184.47804688 159.57507813 185 159 C185.47566406 158.49339844 185.95132813 157.98679687 186.44140625 157.46484375 C196.09688089 145.73416262 195.8704592 127.91804544 194.7265625 113.5703125 C193.22390097 102.6547523 188.47611947 93.18337798 180 86 C150.8547826 67.51504069 108.33026955 74.44603338 78 74 C78 176.63 78 279.26 78 385 C52.26 385 26.52 385 0 385 C0 257.95 0 130.9 0 0 Z " fill="#AFAFAF" transform="translate(617,117)"/>
<path d="M0 0 C95.04 0 190.08 0 288 0 C288 24.42 288 48.84 288 74 C253.02 74 218.04 74 182 74 C182 176.63 182 279.26 182 385 C156.26 385 130.52 385 104 385 C104 282.37 104 179.74 104 74 C69.68 74 35.36 74 0 74 C0 49.58 0 25.16 0 0 Z " fill="#AFAFAF" transform="translate(1041,117)"/>
<path d="M0 0 C76.04020101 0 76.04020101 0 98 10 C99.02351563 10.45117188 100.04703125 10.90234375 101.1015625 11.3671875 C127.29247545 23.59882759 148.94345865 46.75359211 159.19335938 73.70458984 C167.42267178 97.12226394 169.30335276 125.30014697 161 149 C160.58878906 150.22847656 160.17757812 151.45695313 159.75390625 152.72265625 C155.04495878 166.31715429 148.5122543 178.12398164 139 189 C137.76636719 190.45019531 137.76636719 190.45019531 136.5078125 191.9296875 C117.57390962 213.73363011 92.0225937 224.90498296 64 230 C42.88 230 21.76 230 0 230 C0 154.1 0 78.2 0 0 Z " fill="#FEFEFE" transform="translate(2660,195)"/>
<path d="M0 0 C0 127.05 0 254.1 0 385 C-25.74 385 -51.48 385 -78 385 C-78 266.2 -78 147.4 -78 25 C-66.80769231 20.52307692 -66.80769231 20.52307692 -61.84375 19.0625 C-57.01402662 17.61301678 -52.20291076 16.1176203 -47.40625 14.5625 C-46.75946289 14.35318848 -46.11267578 14.14387695 -45.44628906 13.92822266 C-43.46394545 13.28624151 -41.48192089 12.6432849 -39.5 12 C-30.9541156 9.22620693 -22.40255684 6.48235858 -13.80541992 3.87011719 C-10.4151934 2.81861886 -7.05830828 1.68453053 -3.70703125 0.515625 C-2 0 -2 0 0 0 Z " fill="#AFAFAF" transform="translate(2157,117)"/>
<path d="M0 0 C0 126.72 0 253.44 0 384 C-25.41 384 -50.82 384 -77 384 C-77 265.2 -77 146.4 -77 24 C-71.08929135 21.63571654 -65.58401434 19.45284397 -59.5625 17.625 C-58.17045736 17.19829346 -56.77853533 16.77119333 -55.38671875 16.34375 C-54.66919434 16.12460938 -53.95166992 15.90546875 -53.21240234 15.6796875 C-49.42640564 14.51656514 -45.65099588 13.32011491 -41.875 12.125 C-41.09753418 11.87927246 -40.32006836 11.63354492 -39.51904297 11.38037109 C-33.07349927 9.34225966 -26.63006071 7.29751929 -20.1875 5.25 C-19.26243652 4.95625488 -18.33737305 4.66250977 -17.38427734 4.35986328 C-16.50852051 4.08126465 -15.63276367 3.80266602 -14.73046875 3.515625 C-13.49562744 3.12407227 -13.49562744 3.12407227 -12.23583984 2.72460938 C-10.35106813 2.11377705 -8.48025596 1.460114 -6.61328125 0.796875 C-4 0 -4 0 0 0 Z " fill="#AFAFAF" transform="translate(1014,118)"/>
<path d="M0 0 C82.17 0 164.34 0 249 0 C249 24.42 249 48.84 249 74 C166.83 74 84.66 74 0 74 C0 49.58 0 25.16 0 0 Z " fill="#AFAFAF" transform="translate(1352,117)"/>
<path d="M0 0 C82.17 0 164.34 0 249 0 C249 24.09 249 48.18 249 73 C166.83 73 84.66 73 0 73 C0 48.91 0 24.82 0 0 Z " fill="#AFAFAF" transform="translate(1352,274)"/>
<path d="M0 0 C82.17 0 164.34 0 249 0 C249 23.76 249 47.52 249 72 C166.83 72 84.66 72 0 72 C0 48.24 0 24.48 0 0 Z " fill="#AFAFAF" transform="translate(1352,430)"/>
</svg>
